<?xml version="1.0" encoding="utf-8"?>
<!-- Generator: Adobe Illustrator 22.0.1, SVG Export Plug-In . SVG Version: 6.00 Build 0)  -->
<svg version="1.1" id="Layer_1" xmlns="http://www.w3.org/2000/svg" xmlns:xlink="http://www.w3.org/1999/xlink" x="0px" y="0px"
	 viewBox="0 0 1000 1000" style="enable-background:new 0 0 1000 1000;" xml:space="preserve">
<style type="text/css">
	.st0{fill:#231F20;}
	.st1{fill:#F6921E;}
	.st2{fill:#FFFFFF;}
</style>
<g>
	<path class="st0" d="M12.2,131.6v858.1h306.1V497.1c0-112.8,81.4-204.3,181.8-204.3c100.4,0,181.8,91.6,181.8,204.3v492.6H988
		V131.6H12.2z"/>
	<path class="st0" d="M988,71.1c0,23.8-13.2,43.1-29.5,43.1H12c0-23.9,13.2-43.1,29.6-43.1H988z"/>
	<path class="st0" d="M988,10.2c0,23.9-13.2,43.1-29.5,43.1H12c0-23.8,13.2-43.1,29.6-43.1H988z"/>
	<path class="st1" d="M212.5,294.4c0,0,52.2,36.4,27.5,91.7c-24.6,55.4-83.5,94.9-74.7,156.9c8.7,62.3,24.5,62.3,24.5,62.3
		s-24.2-77,15.6-120.4C245.3,441.5,300.1,362.4,212.5,294.4"/>
	<path class="st1" d="M159.7,191.3c0,0,69.3,48.7,36.6,122.3c-32.7,73.6-111.1,126.1-99.4,208.9c11.7,82.9,32.7,82.9,32.7,82.9
		s-32.1-102.6,20.8-160.3C203.4,387.1,276.4,281.9,159.7,191.3"/>
	<path class="st2" d="M230.8,430.1c0,0,29.4,20.5,15.5,51.6c-13.9,31.2-47,53.5-42.1,88.6c4.9,35.1,13.9,35.1,13.9,35.1
		s-13.6-43.4,8.8-67.8C249.3,512.9,280.1,468.4,230.8,430.1"/>
	<path class="st2" d="M168.6,372.1c0,0,39.1,27.3,20.7,68.7c-18.5,41.4-62.6,71.2-56.1,117.8c6.6,46.7,18.5,46.7,18.5,46.7
		s-18.1-57.9,11.7-90.5C193.2,482.2,234.4,423.3,168.6,372.1"/>
	<path class="st2" d="M255,618.7c0,8.8-4.7,15.6-10.8,15.6h-163c0-8.6,4.8-15.6,10.8-15.6H255z"/>
	<path class="st1" d="M880.9,294.4c0,0,52.1,36.4,27.5,91.7c-24.6,55.4-83.4,94.9-74.6,156.9c8.7,62.3,24.5,62.3,24.5,62.3
		s-24.1-77,15.6-120.4C913.6,441.5,968.5,362.4,880.9,294.4"/>
	<path class="st1" d="M828.1,191.3c0,0,69.3,48.7,36.6,122.3c-32.7,73.6-111.1,126.1-99.4,208.9c11.7,82.9,32.8,82.9,32.8,82.9
		s-32.3-102.6,20.7-160.3C871.7,387.1,944.7,281.9,828.1,191.3"/>
	<path class="st2" d="M899.2,430.1c0,0,29.3,20.5,15.4,51.6c-13.8,31.4-47,53.5-42,88.6c4.9,35.1,13.8,35.1,13.8,35.1
		s-13.6-43.4,8.8-67.8C917.7,513,948.5,468.4,899.2,430.1"/>
	<path class="st2" d="M836.9,372.1c0,0,39.1,27.3,20.7,68.7c-18.5,41.4-62.7,71.2-56.1,117.8c6.6,46.7,18.4,46.7,18.4,46.7
		s-18.1-57.9,11.7-90.5C861.5,482.2,902.7,423.3,836.9,372.1"/>
	<path class="st2" d="M923.4,618.7c0,8.8-4.8,15.6-10.7,15.6H749.6c0-8.6,4.9-15.6,10.8-15.6H923.4z"/>
</g>
</svg>
