<?xml version="1.0" encoding="utf-8"?>
<!-- Generator: Adobe Illustrator 22.0.1, SVG Export Plug-In . SVG Version: 6.00 Build 0)  -->
<svg version="1.1" id="Layer_1" xmlns="http://www.w3.org/2000/svg" xmlns:xlink="http://www.w3.org/1999/xlink" x="0px" y="0px"
	 viewBox="0 0 990 188.5" style="enable-background:new 0 0 990 188.5;" xml:space="preserve">
<style type="text/css">
	.st0{fill:#F6921E;}
	.st1{fill:#231F20;}
</style>
<g>
	<polygon class="st0" points="768.8,6 768.8,39.3 715.3,39.3 715.3,73 768.8,73 768.8,182.5 799.5,182.5 799.5,73 853,73 
		853.1,39.3 799.5,39.3 799.5,6 	"/>
	<polygon class="st1" points="236.7,6 236.7,39.3 183.2,39.3 183.2,73 236.7,73 236.7,182.5 267.4,182.5 267.4,73 320.9,73 
		321,39.3 267.4,39.3 267.4,6 	"/>
	<path class="st1" d="M128.4,182.5H44.2c-14,0-24.2-8.4-30.5-23.1C8.5,147.7,6,131.6,6,111c0-13.4,1-24.7,2.8-33.8
		c2.2-11.4,6-20.1,11.2-26c6-6.9,14.2-11.9,24.4-11.9h84v32H47.5c-3.6,0-6.2,4.2-7.8,10.9c-1.6,6.7-2.4,16.4-2.4,28.8
		c0,12.6,0.8,22.2,2.3,29c1.6,6.8,4.2,10.2,7.8,10.2l81,0.1V182.5z"/>
	<rect x="141.6" y="39.3" class="st0" width="30.9" height="32"/>
	<polygon class="st1" points="141.5,182.5 172.5,182.5 172.5,80.4 141.7,80.4 	"/>
	<path class="st1" d="M444.1,88c0,13.3-3.4,23-10.2,29.2c-6.8,6.2-17.4,9.3-31.9,9.3v56.1h-30.6v-56.2c-14.7,0-25.4-3-32.1-8.9
		c-6.7-6-10-15.8-10-29.7l0.1-48.5h30.6l0,45.7c0,3.7,2.2,6.3,6.7,7.9c4.5,1.6,11.2,2.3,20.1,2.4c9.3,0,16-0.8,20.4-2.3
		c4.3-1.5,6.5-4.1,6.5-7.9V39.3h30.6L444.1,88z"/>
	<path class="st0" d="M593.4,150.8c0,8.5-3,15.8-8.9,21.9c-6,6.2-13.2,9.8-21.7,9.8h-76.6c-8.5,0-15.7-3.7-21.7-9.7
		c-5.9-6.1-8.9-13.4-8.9-22.1l0.1-78.2c0-8.7,3-16.1,8.9-22.1c6-6,13.2-11.1,21.7-11.1h107v33.4l-104-0.2l-2.2,0.9l-0.9,2.2
		l-0.1,71.9l0.9,2.3l2.2,1h70.5c2,0,3-1.1,3-3.3v-20.3l-30.7,0l0-31.2h61.2V150.8z"/>
	<path class="st0" d="M752.2,182.5h-33.6L708,158.8l-71.2-0.1l-10.7,23.8h-33.6l58.9-129.1c4.2-9.4,11.3-14.1,21.2-14.1
		c14.5,0,18.9,9.6,21.1,14.2L752.2,182.5z M697.2,135.4l-21.9-49.8l-2.7-2c-1.4,0-2.3,0.7-2.9,2l-22,49.8H697.2z"/>
	<polygon class="st0" points="861.4,39.3 861.4,182.5 984,182.5 984,151.2 892,151.2 892,127.7 976.3,127.7 976.3,96.4 892,96.4 
		892,73.1 984,73.1 984,39.3 	"/>
</g>
</svg>
