<?xml version="1.0" encoding="utf-8"?>
<!-- Generator: Adobe Illustrator 22.0.1, SVG Export Plug-In . SVG Version: 6.00 Build 0)  -->
<svg version="1.1" id="Layer_1" xmlns="http://www.w3.org/2000/svg" xmlns:xlink="http://www.w3.org/1999/xlink" x="0px" y="0px"
	 viewBox="0 0 50 50" style="enable-background:new 0 0 50 50;" xml:space="preserve">
<style type="text/css">
	.st0{fill:#212222;}
</style>
<g>
	<path class="st0" d="M25,5.1c6.5,0,7.2,0,9.8,0.1c2.4,0.1,3.7,0.5,4.5,0.8c1.1,0.4,2,1,2.8,1.8c0.8,0.8,1.4,1.7,1.8,2.8
		c0.3,0.9,0.7,2.1,0.8,4.5c0.1,2.6,0.1,3.3,0.1,9.8s0,7.2-0.1,9.8c-0.1,2.4-0.5,3.7-0.8,4.5c-0.8,2.1-2.5,3.8-4.6,4.6
		c-0.9,0.3-2.1,0.7-4.5,0.8c-2.6,0.1-3.3,0.1-9.8,0.1s-7.2,0-9.8-0.1c-2.4-0.1-3.7-0.5-4.5-0.8c-1.1-0.4-2-1-2.8-1.8
		c-0.8-0.8-1.4-1.7-1.8-2.8c-0.3-0.9-0.7-2.1-0.8-4.5c-0.1-2.6-0.1-3.3-0.1-9.8s0-7.2,0.1-9.8c0.1-2.4,0.5-3.7,0.8-4.5
		c0.4-1.1,1-2,1.8-2.8c0.8-0.8,1.7-1.4,2.8-1.8c0.9-0.3,2.1-0.7,4.5-0.8C17.8,5.1,18.5,5.1,25,5.1 M25,0.7c-6.6,0-7.4,0-10,0.1
		C12.4,1,10.7,1.4,9.1,2C7.5,2.6,6,3.6,4.8,4.8C3.6,6,2.6,7.5,2,9.1c-0.6,1.5-1,3.3-1.1,5.9c-0.1,2.6-0.1,3.4-0.1,10s0,7.4,0.1,10
		C1,37.6,1.4,39.3,2,40.9c0.6,1.6,1.6,3.1,2.8,4.3C6,46.4,7.5,47.4,9.1,48c1.5,0.6,3.3,1,5.9,1.1c2.6,0.1,3.4,0.1,10,0.1
		s7.4,0,10-0.1c2.6-0.1,4.3-0.5,5.9-1.1c3.3-1.3,5.8-3.8,7.1-7.1c0.6-1.5,1-3.3,1.1-5.9c0.1-2.6,0.1-3.4,0.1-10s0-7.4-0.1-10
		c-0.1-2.6-0.5-4.3-1.1-5.9c-0.6-1.6-1.6-3.1-2.8-4.3C44,3.6,42.5,2.6,40.9,2c-1.5-0.6-3.3-1-5.9-1.1C32.4,0.8,31.6,0.7,25,0.7
		L25,0.7L25,0.7z"/>
	<path class="st0" d="M25,12.5c-6.9,0-12.5,5.6-12.5,12.5S18.1,37.5,25,37.5S37.5,31.9,37.5,25l0,0C37.5,18.1,31.9,12.5,25,12.5z
		 M25,33.1c-4.5,0-8.1-3.6-8.1-8.1c0-4.5,3.6-8.1,8.1-8.1c4.5,0,8.1,3.6,8.1,8.1C33.1,29.5,29.5,33.1,25,33.1z"/>
	<circle class="st0" cx="38" cy="12" r="2.9"/>
</g>
</svg>
